<svg xmlns="http://www.w3.org/2000/svg" width="767" height="482"><g fill="none" fill-rule="evenodd"><path d="M397 213.3h.3c.4.1.6.4.7.7-.1-.5-.5-.8-1-.7zM80.7 243.8c-.1.3-.1.6-.2.9 0-.3.1-.6.2-.9zm-18.5 14.6c.6 0 1.1 0 1.7-.1-.6.1-1.1.1-1.7.1zm4.2-.5c.1 0 .2-.1.3-.1 0 .1-.1.1-.3.1zm325.4-40.1l5.4-2.6-5.4 2.6c.1 0 .1 0 0 0-1.1.7-2.4 1-3.7 1.1l-4.1.1h-.4l-5.5 1.3-4 1v-8.6l9.8-.5c2 0 4-.6 5.6-1.9l5.4-4.1c.2-.2.5-.3.7-.4-.3.1-.5.3-.8.4l-5.4 4.1c-1.6 1.2-3.6 1.9-5.6 1.9l-9.7.5v8.7l4-1 5.5-1.3h.7l3.7-.1c1.4-.1 2.7-.5 3.8-1.2zM64.7 258.2c.3 0 .5-.1.8-.1-.3.1-.6.1-.8.1zM81 241.9c0 .4-.1.7-.2 1.1.1-.4.2-.7.2-1.1zm292.2-130.3c-1 4.4-4.2 6.2-7.5 5.8 3.3.4 6.5-1.4 7.5-5.8.2-.6.3-1.3.4-1.9h-.1c-.1.6-.2 1.2-.3 1.9zM90.9 281.8c0-.1 0-.1 0 0-.1-3.9-2.2-7.6-5.5-9.5-2.1-1.3-4.5-1.9-6.9-1.9 2.4 0 4.8.7 6.9 1.9 3.4 1.9 5.5 5.5 5.5 9.5zm287.8-175.9c-.6-.1-1.2-.1-1.7 0 2.2-.4 4.3 1.1 4.7 3.3v-.3c-.4-1.5-1.6-2.6-3-3zM81.2 239.4c0 .6 0 1.2-.1 1.8.1-.5.1-1.1.1-1.8zm124.4 101.3c.3-.2.6-.3.9-.5.2-.1.3-.2.5-.3-1-.2-2.1-.3-3.2-.3-1.4-.1-2.7.3-3.8 1.1-.2.2-.4.4-.5.7 0 .2.1.4.3.5.1 0 .1.1.2.1.3.1.7.2 1.1.1.8-.1 1.7-.3 2.5-.6.3-.1.5-.2.8-.3.4 0 .8-.3 1.2-.5zm-57.4-201.8s.1.1.1.2c-.1-.1-.1-.1-.1-.2zM14.4 123.5h.4c0-.3-.1-.6-.1-.9l-.3.9zm23.1-3.7c0-.5-.1-1.1-.6-1.3-.2 0-.5 0-.7.2-1.9 1.2-3.6 2.8-4.8 4.7v.1h-9.6c3.4-2.2 6.7-4.6 9.9-7.2 1.4-1.1 2.7-2.3 3.8-3.8.5-.6.8-1.3.9-2.1.1-.8-.4-1.6-1.1-1.9-.8-.2-1.6 0-2.3.4-6.1 3.2-11.2 8.1-17 12-.1-.4-.2-.7-.3-1.1-.2-.5-.3-1.1-.4-1.6-.4-1.6-.7-3.1-1-4.7l.6-.2c1-.4 2.1-.8 3.1-1.2l1.4-.6c5.1-2.2 10-4.9 13.8-9 .9-.9 1.7-2.5.8-3.4-.6-.5-1.3-.6-2-.5-1.6.2-3.2.6-4.6 1.2-.1 0-.2.1-.2.1-3.2 3.5-5.8 7.4-8 11.6l-1.4.5c1.9-4 4.3-7.7 7.1-11.1L21 103c-2.1 1-4.3 1.9-6.6 2.5h-.2c.1 2.5.3 5.1.5 7.7l-.6.2c.3 1.6.6 3.1 1 4.7.1.5.3 1.1.4 1.6l-.2.6c.1 1 .2 2 .4 3h35.6-14.6c.4-1 .7-2.2.8-3.5zm69.7 100.4h-.2c2.7 2 5.9 2.9 9.1 2.9-3.1-.1-6.2-1-8.9-2.9-.6-.5-1.3-1.1-1.9-1.7l-3.8-3.8 3.7 3.8c.7.6 1.3 1.2 2 1.7zm-19-87.1l-.2 2.8.2-2.8zM17.5 53.7v.5c0 .7-.2 1.4-.3 2.1l.3-2.1c-.1.7-.2 1.3-.4 2.1s-.5 1.7-.9 2.5c.4-.8.7-1.6.9-2.5.2-.7.3-1.4.3-2.1.1-.1.1-.3.1-.5.1-.2 0-.5-.1-.7-.2-.2-.4-.3-.6-.2.2 0 .5 0 .6.2 0 .3.1.5.1.7zm18.5 16c-.3-.8-.8-1.7-1.6-1.9-.7-.1-1.4.3-1.8 1-.3.6-.5 1.3-.6 2.1-.8 5.7-1.3 11.5-1.6 17.3-.1 1.1-.2 2.2-.2 3.3h.1c0-1.1.1-2.2.2-3.3 2.2-.1 4.5-.3 6.7-.7.2-2.7.2-5.4.2-8 0-3.4-.4-6.7-1.4-9.8zm51.9 67l-4.3-.4 4.3.4-.3 2.8.8.1-.8-.1.3-2.8zM44.2 75.3c-.2-.3-.5-.7-.9-.6-.2.1-.4.3-.5.5-1 1.9-.1 4.3.7 6.4.3.9.6 1.9.9 2.9.5 1.6.8 3.3 1.1 4.9-.3-1.7-.6-3.3-1.1-4.9.9-.4 1.9-.8 2.8-1.2l-.2-.4c-.7-2.6-1.3-5.4-2.8-7.6zm6.8 35c-.6.9.5 1.9 1.4 2.4l6 3c.7-.8 1.3-1.8 2.2-2.4.5-.3 1-.5 1.5-.7-3-.9-6-1.8-9-2.6-.8-.2-1.7-.3-2.1.3zm173.3 44l6.3 3.3-6.3-3.3zm13.5 37.3l-2.2 6.5 2.2-6.5zm3.4-9.7l.7-2.2-.7 2.2zm-7.5 40.5l-7 51.6 7-51.6zm9.5 13.9c-2.9 21.9-11.2 43.1-11.2 43.1l21.3 36.7h11.3l-21.4-79.8zm-102.8-80.9c-.1-.2-.2-.4-.3-.5.2.2.3.4.3.7l.6 3.5-.6-3.5v-.2zm7.3-15.9l-3.1-.8h-.1c-.1 0-.2-.1-.2-.2.1.1.1.2.3.2l3.1.8h.1c.1 0 .2-.1.3-.1-.1.1-.2.1-.3.1h-.1zM53.9 270.3c-4.9-.8-9.1-4.1-11-8.6v8.6h11zm352 55.2h-.1l-6.5-.9 3.1 13.7 3.5-12.8zm-7.2 26.8c.1.2.2.5.3.7l-.2-.9-7.1-27.9-.1-.2.2 24.5c2.8.2 5.4.3 6.9 3.8zM7.6 196.8l-.4-1.8"/><path d="M13.2 122.8c-.1.2-.1.5-.2.8h.3c0-.3-.1-.6-.1-.8z" fill="#FFE8E2" fill-rule="nonzero"/><path d="M496.4 353.6H86c126.9 145.5 347.8 160.7 493.3 33.8 12-10.5 23.3-21.8 33.8-33.8H496.4z" fill="#FDB29D" fill-rule="nonzero"/><path d="M382.8 133.9c-1.3 0-2.3-1.1-2.3-2.3 0-.3 0-.5.1-.8v-.1c.7-1.5 2.1-2.5 3.8-2.7 5.9-.5 6.3-.6 7.6-6 .6-3.1 2.9-2 3.3-3.8.4-1.6-.7-3.7-.3-7.2.1-.5.1-.9.3-1.4 1.4-9.4-5.2-18-14.6-19.5-4.7-.8-9 1.1-9 1.1h.1c5.7.5 9.6 4.1 9.9 9.8v8.1c0-.1-.1-.2-.1-.3v.3c-.4-2.2-2.5-3.7-4.7-3.3-1.5.3-2.8 1.5-3.2 3.1-.1.2-.1.4-.1.7h-.1c-.1.7-.2 1.3-.3 1.9-1 4.4-4.2 6.2-7.6 5.8-.4-.1-.9-.1-1.3-.3l-.9-.3c1.7 4.9 1 11.1-2 14.5.5.8.9 1.7 1.2 2.6h20.2v.1zm22.6 41.5l-5 2.8 1.4 11.4c4.1 2.3 9.2 2 12.9-.9l29.7-22.5L448 146c.2-1.1-.5-2.1-1.5-2.4l-2 2.1c-.5.5-.7 1.1-.8 1.8l-.3 3.9c-.2 1.9-1.3 3.6-3 4.6l-24 13.2-11 6.2z" fill="#955646" fill-rule="nonzero"/><path d="M364.4 117.1c.4.1.9.2 1.3.3 3.4.4 6.5-1.4 7.5-5.8.2-.6.5-1.9.5-1.9 0-.2 0-.4.1-.7.4-1.6 1.7-2.8 3.2-3.1.6-.1 1.1-.1 1.7 0 1.5.3 2.6 1.5 3 2.9 0 .1.1.2.1.3V101c-.3-5.7-4.2-9.3-9.9-9.8h-.1c-2.1.9-4 2.1-5.6 3.7-.5.5-.9.9-1.3 1.5-1.1 1.4-2 3-2.6 4.7-.2.5-.4 1.1-.5 1.6-.1.3-.2.7-.2 1-.6 2.9-.4 6 .5 8.8.5 1.6 1 3 1.5 4.3.2.1.5.2.8.3z" fill="#EDEEEF" fill-rule="nonzero"/><path d="M397 213.3c.5 0 .9.3 1 .7v.4c0 .2-.1.3-.3.4 1.2-.7 2.6-1.2 4-1.4l-2-1.1-2.1-1.1-1.8 2.4 1.2-.2c-.1-.1-.1-.1 0-.1zm.2 1.9l-5.4 2.6c-1.1.7-2.4 1.1-3.7 1.1l-3.7.1h9.6c.6-1.6 1.7-2.9 3.2-3.8zm6.8-2.5c0 .1-.1.3-.1.4h.8l-.3-2.1-1.8-.1.9.6c.4.2.6.7.5 1.2zM362.7 134c.4 1.2.7 2.5.9 3.8.1 4.4 2.2 6.5 2.2 8.3 0 1.8-2.5 1.4-2.2 4.5.2 5.6-.2 5.7-5.8 7.7-3.7 1.3-3.5 6.4-2.9 9.8 6 13.3 14.7 15.9 11.4 41.5h8v3l9.7-.5c2 0 4-.6 5.6-1.9l5.4-4.1c.2-.2.5-.3.8-.4.8-.4 1.7-.5 2.6-.3l5.7 1.5-2.2-17.4-1.4-11.4 5-2.8 11-6.2-14.1-25.5c-2.8-5-7.7-8.5-13.3-9.5-.6-.1-1.3-.2-1.9-.2-.4 0-.9-.1-1.3-.1h-3l-20.2.2c0-.1 0 0 0 0z" fill="#65684E" fill-rule="nonzero"/><path d="M345.5 264.1h.3-.3zm-.8 0h.8-.8zM380 339c.2.7.4 1.3.7 2 .7 1.7 1.7 3.2 3 4.6 1.6 1.5 3.6 2.5 5.8 2.8.8.1 1.6.2 2.3.2l-.2-24.5-.1-.5-10.3-1.4c-.2 3.1-3 10.5-1.2 16.8zm-13.5-18.9l2.9.4-2.9-.4zm-8.4-46.4h-11.4l-2.8 13.4-2.2 66.3h17.5l-1-66.7-.2-13h.1z" fill="#0D2135" fill-rule="nonzero"/><path d="M456.4 216.5c1.3-1.5 1.8-3.6 1.4-5.5l-6.8-35.8-.8 4.5 6 31.6c.3 1.5-.1 3-1.1 4.2-1 1.2-2.5 1.9-4 1.9h-14.9c-.4 0-.8.4-.8.8s.3.8.8.8h15.1c2 0 3.8-.9 5.1-2.5z" fill="#5B6A6B" fill-rule="nonzero"/><path d="M451 175.2l8.6-49.1c.4-2.1-1-4.1-3.1-4.5h-.3c-2.1-.4-4.1 1-4.4 3.1L439 197.6c-.4 2.1 1 4.1 3.1 4.5l.3.1c2.1.4 4.1-1 4.4-3.1l3.4-19.2.8-4.7z" fill="#95ABC1" fill-rule="nonzero"/><path d="M424.1 316.6h30.2l9.9 36.9h.1l.8-.2-32.9-122.8h-.9l-7.3 27.1c.1.8.1 1.6.1 2.4v.5l7.6-28.3 22.4 83.7h-30v.7zm-18.2 8.9l-3.5 12.8.4 1.7 3.9-14.4h-.1l-.7-.1z" fill="#3B4444" fill-rule="nonzero"/><path d="M494.5 219.1c-.1 0-.2-.1-.2-.1h-77.7l.1.1h-22.6s0-.1.1-.1h-10.3l-5.5 1.3v10.2H501V221c-2.3-.1-4.5-.8-6.5-1.9z" fill="#798C9B" fill-rule="nonzero"/><path d="M391.9 217.7l5.3-2.6.5-.3c.1-.1.2-.3.3-.4v-.4c-.1-.3-.3-.6-.7-.7h-.4l-1.2.2-1.4 1.9-.5.6c-.5.7-1.2 1.3-1.9 1.7zm12-4.6c.1-.1.1-.3.1-.4.1-.5-.1-.9-.5-1.2l-.9-.6-4.5-.4-.5.7 2.1 1.1 2 1.1c.7-.2 1.4-.3 2.2-.3z" fill="#BF7461" fill-rule="nonzero"/><path d="M395.7 205.8c-.3.1-.5.3-.7.4l-5.4 4.1c-1.6 1.2-3.6 1.9-5.6 1.9l-9.8.5v8.6l4-1 5.5-1.3h.4l4.1-.1c1.3 0 2.6-.4 3.7-1.1.8-.5 1.4-1.1 2-1.8l.5-.6 1.4-1.9 1.8-2.4.5-.7 4.5.4 1.9.2 5.5.4c.5 0 1-.2 1.3-.7.4-.6.2-1.4-.4-1.8-.1-.1-.3-.1-.4-.2L404 207l-5.7-1.5c-.9-.2-1.8-.1-2.6.3z" fill="#DE9885" fill-rule="nonzero"/><path fill="#955646" fill-rule="nonzero" d="M365.9 273.7l-.1-9.5h-43.2v9.5h35.5z"/><path d="M365.2 350.6c-.1-2.5.1-5 .7-7.5l.1-1.6v-.9l.4-20.4h.1l-.5-46.4h-7.8l.2 12.9.9 52.3.2 14.1h6c-.2-.9-.3-1.7-.3-2.5z" fill="#FFF" fill-rule="nonzero"/><path d="M399.3 324.6l-7.9-1.1.1.5.1.2 7.1 27.9.2.9v.1h6.7l-2.9-13.1-.4-1.7-3-13.7zm-79.7 28.5h6.7l17.6-68.4 2.8-11h-9.3l-17.8 79.4z" fill="#95ABC1" fill-rule="nonzero"/><path d="M382.1 350s-.3-1.8 1.6-4.4c-1.3-1.3-2.3-2.9-3-4.6-.3-.6-.5-1.3-.7-2-1.7-6.2 1-13.7 1.1-16.9l-7.9-1.1-6.7-.9h-.1l-.4 20.4v.9l-.1 1.6c4.6 3.9 10.2 6.3 16.2 7z" fill="#DE9885" fill-rule="nonzero"/><path d="M398.7 352.3c-1.5-3.5-4.1-3.6-6.9-3.8-.8 0-1.5-.1-2.3-.2-2.2-.3-4.2-1.2-5.8-2.8-1.9 2.7-1.6 4.4-1.6 4.4-6-.6-11.6-3-16.2-6.9-.6 2.5-.8 5-.7 7.5 0 .8.1 1.6.2 2.5H399v-.1c-.1-.1-.2-.4-.3-.6z" fill="#57697B" fill-rule="nonzero"/><path d="M343.8 230.7c-8.1.2-15.9 3-22.3 8 0 0 3.8 23.9 23.2 25.4h21l.1 9.6.5 46.4 2.9.4 3.8.5 7.9 1.1 10.3 1.4 7.9 1.1 6.5.9.8.1 17.4 2.4v-68c0-.8 0-1.6-.1-2.4-1.2-15.2-13.9-27-29.2-27h-28.9l-21.8.1z" fill="#DC6240" fill-rule="nonzero"/><path d="M354.8 168.1c-.6-3.4-.7-8.5 3-9.8 5.6-2 6-2.2 5.8-7.7-.2-3.1 2.2-2.7 2.2-4.5 0-1.8-2.1-3.9-2.2-8.3-.1-1.3-.4-2.6-.9-3.8-.3-.9-.7-1.8-1.2-2.6-.2-.3-.3-.5-.5-.8l-.2.4c-.4 1-1.1 1.7-2.1 2.2-1 .4-2.1.2-2.8-.6-.5 2.1-1.8 3.8-3.6 5-.4.3-.8.5-1.3.7-.3 1-.5 2.1-.7 3.1-.1.4-.1.8-.2 1.2-.1.7-.2 1.4-.2 2.1-.3 3.9 0 7.9.8 11.7.4 2 .9 4 1.6 6 .7 2 1.5 3.9 2.5 5.7z" fill="#DE9885" fill-rule="nonzero"/><path d="M351 123.1h.1"/><path d="M374.2 221.4v-11.7h-8c3.4-25.6-5.4-28.2-11.4-41.5-1.1 1.3-2.6 2.4-4.2 3.2-8.8 4.4-23.2 1.7-27.7 8.4 0 0-5.2 34-1.4 58.9 6.4-5 14.2-7.9 22.3-8h46.6v-.1h-12.3v-10.2l-3.9 1z" fill="#0D2135" fill-rule="nonzero"/><path d="M351.1 123.1l.1.1"/><path d="M351.6 136.6c-.2.5-.3 1.1-.5 1.6.4-.2.9-.4 1.3-.7 1.8-1.2 3.1-2.9 3.6-5 .7.7 1.9 1 2.8.6.9-.4 1.7-1.2 2.1-2.2l.2-.4c-1.1-1.8-2.5-3.3-4.2-4.6-2.4 3.3-4.2 6.9-5.3 10.7z" fill="#0D2135" fill-rule="nonzero"/><path d="M354.8 168.1c-.9-1.9-1.7-3.8-2.4-5.7-.7-2-1.2-4-1.6-6-.8-3.8-1-7.8-.8-11.7.1-.7.1-1.4.2-2.1.1-.4.1-.8.2-1.2.2-1 .4-2.1.7-3.1.1-.6.3-1.1.5-1.7 1.2-3.8 3-7.4 5.3-10.6-.4-.3-.8-.6-1.2-.8l-.3-.2c-.3-.2-.6-.4-1-.5l-.4-.2-1-.4-.5-.2c-.4-.1-.8-.3-1.2-.4l-.2-.1h-.1l-.7-.2-.7-.2-.5-.1-.9-.1-.4-.1c-.4 0-.9-.1-1.3-.1-9.5 0-17.2 7.7-17.2 17.2 0 1.3.2 2.7.5 4v.1c2.4 12.8-3.7 13.9-6.9 36 4.6-6.7 19-4.1 27.8-8.4 1.5-.7 2.9-1.8 4.1-3.2z" fill="#57697B" fill-rule="nonzero"/><path d="M403.9 213.1c-.7 0-1.5.1-2.2.3-1.4.3-2.7.8-4 1.4l-.5.3c-1.4.9-2.6 2.3-3.2 3.8 0 0 0 .1-.1.1h22.6l-.1-.1c-1.9-3.9-6.9-6-11.8-5.9-.2.1-.4.1-.7.1z" fill="#0D2135" fill-rule="nonzero"/><path d="M17.5 54.3c-.1.7-.2 1.3-.3 2.1l.3-2.1zM0 116.1c0-1.7.1-3.3.1-5 0 1.7-.1 3.4-.1 5z" fill="#FFE8E2" fill-rule="nonzero"/><path d="M14.7 122.7c0 .3.1.6.1.9h1c-.1-1-.3-2-.4-3l.2-.6c-.2-.5-.3-1.1-.4-1.6-.4-1.6-.7-3.1-1-4.7l.6-.2c-.2-2.6-.4-5.2-.5-7.7-.1 0-.3.1-.4.1h-.2c0-1.5.2-3 .4-4.5v-.2c-.1-5.5 0-10.8.2-15.9l-1-.7c-.2 3.9-.3 8.1-.3 12.3 0 .1.1.2.1.2.7 2.6.7 5.3.2 8 .2 5 .6 10.1 1.1 15.3-.3 1-.7 2.1-1 3.1h1c.1-.3.2-.6.3-.8zm4.5-11.2c2.1-4.2 4.8-8.1 8-11.6-.7.3-1.3.6-2 .9-.1 0-.2.1-.3.1-2.8 3.4-5.2 7.1-7.1 11.1l1.4-.5zm-2.1-55.2c.1-.7.3-1.4.4-2.1v-.5c0-.2 0-.5-.2-.7-.2-.2-.4-.2-.6-.2-.4 2.1-.7 4.6-1.1 7.3.3-.5.5-.9.7-1.4.3-.7.6-1.5.8-2.4zM16 64.7c-.6 1.5-1 3.1-1.5 4.6-.4 3.9-.8 8.2-1 12.7.4-.8.8-1.5 1.1-2.2.4-5.6.9-10.7 1.4-15.1zm-5.4 58.8C8 115.3 4.7 107.4.6 99.9v.9l-.1 1c3.6 6.9 6.6 14.1 9 21.6.2 0 .5.1.7.2l.4-.1z" fill="#154B2E" fill-rule="nonzero"/><path d="M14.3 105.7h.2c2.3-.6 4.5-1.5 6.6-2.5 1.3-.6 2.6-1.4 3.9-2.1.1 0 .2-.1.3-.1.7-.3 1.3-.7 2-.9.1 0 .2-.1.2-.1 1.5-.7 3-1.1 4.6-1.2.7-.1 1.4 0 2 .5.9.9.1 2.5-.8 3.4-3.8 4.1-8.7 6.8-13.8 9l-1.4.6c-1 .4-2.1.8-3.1 1.2l-.6.2c.3 1.6.6 3.1 1 4.7.1.5.3 1.1.4 1.6.1.3.2.7.3 1.1 5.7-3.8 10.8-8.7 17-12 .7-.5 1.5-.6 2.3-.4.7.3 1.2 1.1 1.1 1.9-.1.8-.4 1.5-.9 2.1-1.1 1.4-2.4 2.7-3.8 3.8-3.2 2.6-6.5 5-9.9 7.2h9.6v-.1c1.2-1.9 2.8-3.5 4.8-4.7.2-.1.4-.2.7-.2.5.1.6.8.6 1.3-.1 1.2-.3 2.5-.7 3.6h14.7c0-.3 0-.6.1-.9.2-1.5.9-2.8 2-3.8 1.2-1 2.8-1.4 4-2.3.3-.3.6-.5.8-.8-2-1-4-1.9-6-3-.9-.5-2-1.5-1.4-2.4.4-.6 1.4-.5 2.1-.3 3 .8 6 1.7 9 2.6 2-.5 4.3.1 6.3-.7 1-.4 1.9-1.1 2.9-1.6.5-.2 1-.3 1.5-.4v-1c-5.7-2-11.3-4-17-6-1.9-.6-3.7-1.4-5.4-2.4-.8-.5-1.5-1.5-1-2.2.5-.7 1.3-.6 2.1-.5 7 1.3 14 3 20.7 5.4-.7-4.5-2.2-8.8-4.3-12.9-1.4-3-3.7-5.5-6.5-7.2-1.9-1-4-1.5-6.2-1.5-1.4 2.1-3.1 3.9-5.1 5.4l-.3.2c-.9-1.2-1.7-2.5-2.2-3.9-1 .4-1.9.8-2.8 1.2.5 1.6.8 3.3 1.1 4.9-2.8 1.2-5.7 2-8.7 2.2l.3-4.2c-2.2.4-4.4.6-6.7.7-.1 1.1-.1 2.2-.2 3.3h-.1c-2.4-.3-4.8-.8-7.1-1.6.1-.2.1-.4.1-.6v-.1c-1.5.3-2.6.8-3.6 1.5-3.3 2.2-5.1 6.4-5.7 10.4v.2c-.2 1.5-.4 2.9-.4 4.4.1.1.2 0 .4 0z" fill="#209959" fill-rule="nonzero"/><path d="M23.1 89.8c2.3.8 4.7 1.3 7.1 1.6 0-1.1.1-2.2.2-3.3.3-5.8.9-11.5 1.6-17.3 0-.7.2-1.4.6-2.1.4-.7 1.1-1 1.8-1 .8.2 1.3 1.1 1.6 1.9 1 3.1 1.4 6.4 1.3 9.7 0 2.7 0 5.4-.2 8l-.3 4.2c3-.2 6-.9 8.7-2.2-.3-1.7-.6-3.3-1.1-4.9-.3-1-.6-1.9-.9-2.9-.8-2.1-1.7-4.5-.7-6.4.1-.2.3-.4.5-.5.4-.1.7.3.9.6 1.5 2.2 2 5 2.9 7.6l.2.4c.5 1.4 1.2 2.7 2.2 3.9l.3-.2c2-1.5 3.7-3.3 5.1-5.4.7-1 1.3-2 1.8-3-3.2-2.1-6.2-4.3-9.1-6.6-1.9-1.6-3.9-3.3-4.5-5.7-.2-.7-.1-1.8.7-1.9.4 0 .7 0 1 .2 3.1 1.6 5.8 3.9 8.8 5.8 1.6 1.1 3.4 1.9 5.3 2.5.7-2.9 1-6 .8-9-3.7-.6-7.4-1.3-11.1-2.1-3.9-.8-7.9-1.8-11.3-3.9-1-.6-2-1.9-1.4-2.9.6-.6 1.4-.8 2.2-.7 6.2.4 12.1 3.2 18.4 3 .4 0 .7 0 1.1-.1l1-.1c-.5-1.6-1-3.1-1.7-4.6-.7-1.7-1.6-3.4-2.5-5-8 1.6-16.1 2.6-24.2 3.2-1 .2-2 0-3-.3-1-.4-1.5-1.5-1.1-2.5.4-.6 1-1.1 1.8-1.2 4.2-1.4 8.6-1.9 12.9-2.6 3.2-.5 6.3-1.5 9.1-2.9l-1.1-1.2c-1.5-1.8-3.3-3.4-5.1-4.8-5 2.8-10.2 5-15.8 6.5-1.2.3-2.8.5-3.3-.6-.3-.8 0-1.8.7-2.3.7-.5 1.5-.8 2.4-1 3.7-1.2 7-3.3 9.5-6.2-2.5-.9-5.2-1.2-7.8-.8-6.7 1.1-10.4 6.4-15 10.7-2.2 1.9-4.4 3.6-6.9 5.1-.5 2.6-1 5.3-1.5 7.9.4-.2 1-.3 1.4-.1 1 .5.9 1.9.6 2.9-.4 1.2-1.1 2.3-2 3.2l.7-.7c-.3.8-1 1.3-1.8 1.5-.5 2.9-.9 5.8-1.3 8.6 2.4-2.3 4.5-5 6.1-8 1.7-3.1 3.1-6.7 6.2-8.6.2-.1.4-.2.7-.3.2-.1.5 0 .6.2.1.2.2.4.2.7v.5c0 .7-.2 1.4-.3 2.1-.3.8-.6 1.7-.9 2.5-.2.5-.4.9-.7 1.4-.5.9-1 1.7-1.5 2.5-2.8 4.6-6.1 9-9.7 13.1 1.3 1.7 2.8 3.4 4.3 4.9 2.2-2.9 3.9-6.1 5.1-9.6.2-.6.4-1.3.6-1.9.5-1.5.9-3.1 1.5-4.6.3-.7.5-1.4.8-2 .4-.8 1-1.8 1.9-1.8.9.1 1.6.8 1.8 1.7.1.8 0 1.7-.3 2.5-1.5 5.1-3.3 10-5.6 14.8-.4.8-.7 1.5-1.1 2.2-.4.7-.7 1.3-1 2l.9.6 1 .7c1.2.8 2.4 1.6 3.6 2.2 1-1.5 1.9-3.1 2.5-4.7 1.1-3.2 1.2-6.6 1.9-9.9.1-.7.3-1.3.7-1.9.4-.6 1.1-.8 1.7-.7 1 .3 1.2 1.7 1.1 2.8-.4 5.4-1.3 10.8-2.6 16.1v.1c.1 0 .1.2 0 .4zm-20 31.3c1.4-1.4 2.8-2.8 4.1-4.3-2.8-3.3-5.1-7.1-6.9-11-.1 1.7-.2 3.5-.2 5.2v.1c-.1 1.7-.1 3.3-.1 5v.1c.7 1.8 1.8 3.5 3.1 4.9zm10-24c0-.1-.1-.2-.1-.2-.3-1.1-.7-2.1-1.3-3.1-2.2-3.9-6.1-6.3-9.9-8.8l-.9 9.9c3.9 5.3 5 12.4 9.7 17 .5-.9.9-1.8 1.3-2.8.5-1.3 1-2.6 1.2-4 .8-2.7.7-5.4 0-8z" fill="#40B674" fill-rule="nonzero"/><path d="M7.8 193.6H7l.3 1.5.4 1.7c.4 2 .9 4 1.3 6h.3c-.7-2.9-1.3-5.8-1.9-8.7.1-.2.2-.4.4-.5zm44-66.7c-.3-1.1-.4-2.2-.4-3.3v-.1H-.1v.2c0 2.3 0 4.6.1 6.9v3.4h52.2c.1-1.2.4-2.4.4-3.5-.1-1.1-.4-2.4-.8-3.6zm30.2 7.3c.7-.5 1.3-1.1 1.9-1.6-.6.5-1.2 1.1-1.9 1.6zm-7.3 0c-1.1-.6-2.6-.7-3.9-.2-.1 0-.2.1-.3.2 1.3-.7 2.9-.7 4.2 0z" fill="#74899F" fill-rule="nonzero"/><path d="M68.5 135.9c.1-.1.1-.2.2-.3 0 .2-.1.2-.2.3zm-.3.8c0-.1.1-.1.1-.2-.1 0-.1.1-.1.2zm2.2-2.5c-.5.3-1 .6-1.4 1.1.1-.1.1-.2.2-.2.4-.4.8-.7 1.2-.9zm5.6.9c.6.6 1 1.2 1.2 2 .7-.3 1.5-.7 2.2-1.1l4.3.4-4.3-.4c.4-.2.8-.5 1.2-.7.5-.3 1-.7 1.4-1-.5.3-.9.7-1.4 1-.4.3-.8.5-1.2.7-.7.4-1.4.8-2.2 1.1-.2-.8-.6-1.5-1.2-2-.3-.4-.7-.6-1.1-.8h-.1c.4.1.8.4 1.2.8zM4.4 179.5c.2 1.3.5 2.7.7 4l.6 3.6c.2 1.2.5 2.6.8 3.9.2.8.3 1.7.5 2.5h.9c3.5-4.5 8.9-7.3 14.9-7.3h20.4C46.8 170.8 57 167 61.4 162c0 0 7.7 3.8 15.5 7.4 1.9.9 3.7 1.7 5.5 2.5v-.1c-1.8-.8-3.6-1.6-5.4-2.5L61.6 162h-.1l15.4 7.4c-7.3-3.4-14.5-6.9-15.4-7.4h-.1c2.8-4.1 3.3-7 .7-11.3 2 0 4-.8 5.5-2.1.6-.6 1-1.5 1.2-2.5-.2 1-.6 1.9-1.2 2.5-1.5 1.3-3.5 2-5.5 2.1-1 0-1.9-.1-2.8-.5-2.8-1.1-4.8-3.7-4.9-6.8.2-1.2.2-2.4 0-3.6-.4-1.4-1.6-2.4-2-3.8-.2-.6-.2-1.2-.2-1.8H.1c0 .8.1 1.6.1 2.4.1 1.6.1 3.2.2 4.7.1 1 .1 1.9.2 2.9.1 1.6.2 3.3.3 4.9.1.8.1 1.7.2 2.5.5 5.9 1.1 11.7 1.8 17.5.1.9.2 1.9.4 2.8l.6 4.2c.1 1.1.3 2.3.5 3.4z" fill="#C1DDF4" fill-rule="nonzero"/><path d="M253 353.6v-.1l.1-.1h-.9l.7.1v.1h.1zm-9.8-117.3l21.4 79.8h-11.3l.5.8h11.1l9.8 36.6h.1l.7-.2-31.9-119.2c-.1.7-.2 1.3-.3 2l-.1.2z" fill="#3B4444" fill-rule="nonzero"/><path d="M252.3 222.3h-8.1c0 3.1-.2 6.2-.5 9.3h49.2v-11.4h-40.6v2.1zm-136.2.8c-3.2 0-6.4-.9-9.1-2.9h-7.2c-1.3 2.3-2.6 3.3-1.5 6.8.5 1.6 1.1 3.1 1.6 4.6h103.3c1.1-5.7 1.9-9.2 1.9-9.2h1.1v-.1h-9.8v-2.1h-71.1c-2.8 1.9-6 2.9-9.2 2.9zm-102.7-2.9l1.8 6c.1.5.3.9.4 1.4.4 1.4.8 2.7 1.3 4h.3c-1.2-3.8-2.4-7.6-3.5-11.4h-.3z" fill="#798C9B" fill-rule="nonzero"/><path fill="#1B4481" fill-rule="nonzero" d="M258.7 220h7.2v-23.7h.1v-14.7h-7.3v7.5z"/><path fill="#57697B" fill-rule="nonzero" d="M252.3 216v4.1h6.4v-30.9h-6.3v.9h-.1v1.6h.1v14.6h-.1.1v1.6h-.1v8.1z"/><path fill="#0D2135" fill-rule="nonzero" d="M265.9 220h4.9v-23.7h-4.9z"/><path d="M277.8 220v-37.8h-7V220h7zm-152.4 0h29.3v-7h-24.2l-.2.4c-.9 2.7-2.6 4.9-4.9 6.6z" fill="#BC762E" fill-rule="nonzero"/><path fill="#F9E8D7" fill-rule="nonzero" d="M133.3 206.1l-2.7 6.9h30.9v-6.9z"/><path fill="#5B6A6B" fill-rule="nonzero" d="M135.3 201l-2 5.1h34.8V201z"/><path fill="#6FA9DC" fill-rule="nonzero" d="M168.1 201v-8.6h-29.4l-3.4 8.6z"/><path fill="#606E30" fill-rule="nonzero" d="M277.8 187.7h11V220h-11z"/><path fill="#FFE8E2" fill-rule="nonzero" d="M223.5 140.1v-.1l-7.7 1.4.1-.1z"/><path d="M213.8 336.6h.8-.8z" fill="#3B4444" fill-rule="nonzero"/><path d="M244.1 222.3H206v.1h27.6l-7 51.6 1 55.2 3.1 6.3 12.9-9.3 9.4-6.8 1.4-1-.8-1.4-.5-.8-21.3-36.7s8.3-21.2 11.2-43.1v-.1c.1-.7.2-1.3.3-2v-.1c.1-.7.2-1.6.3-2.5.4-3.2.6-6.4.5-9.4z" fill="#0D2135" fill-rule="nonzero"/><path d="M237.8 107.2c0-.2-.1-.5-.1-.7v.4c0 .1 0 .2.1.3zm-18 8.7v-3.5c0-1.8 0-3.7.1-5.6-.4 0-8.3-1-13.6-7.1-.9 1.5-1.6 3.1-2 4.7-.4 1.7-.6 3.5-.5 5.2v.4c0 .2 0 .5.1.7.1 2-.3 4.1-1.2 5.9-.5 1 0 2.2 1 2.6h.1l1.7.6c.1.8 1.1 4.2 1.3 4.8.8 2.7 2.6 3.8 6.5 4.1 6.8.6 2 12.8 2 12.8l8.5-1.5c-1.6-4.6-2.7-9.4-3.1-14.3-.6-3.1-.8-6.3-.9-9.8z" fill="#DE9885" fill-rule="nonzero"/><path d="M246.2 165.7h4.9c-.3-2.3-.6-4.4-1-6.5h-16.3l12.4 6.5zm-22.7-25.6l-7.6 1.2h8.1c-.1-.4-.3-.8-.5-1.2zm-10.9 43.4l3.6 2.8.7-2.8h-4.3zm5-8.1h-15.4l8.4 6.5h6.7l1.7-6.5h-1.4zm20.8 14.6h14.1v-.9c0-1.9-.1-3.8-.1-5.6h-11.7l-2.3 6.5zm5.5-16.2h7.9c-.2-2.2-.3-4.4-.6-6.5h-5.1l-2.2 6.5zm-2.7 8.1h11c-.1-2.2-.2-4.4-.3-6.5h-8.5l-1.5 4.3-.7 2.2zm-15.9-32.4h3.9c-1.8-1.9-3.3-4.1-4.4-6.5h-10.3c-.8 2-1.7 4.1-2.8 6.5h13.6zm-2.2 9.7h-15.6c-.8 2-1.7 4.2-2.5 6.5h16.4l1.7-6.5zm29.2 48.6h-24.9c-4.9 2.5-10.7 2.5-15.5 0h-15.2c-.1 2.1-.3 4.2-.3 6.5h55.9v-6.5zm-28-53.5l6.3 3.3h19.1c-.1-.7-.3-1.3-.5-1.9-.5.1-1 .1-1.6.2-.5 0-1.1.1-1.6.1-6.3 0-11.3-1.6-15.1-4.7H211c-.9 2-1.9 4.1-2.8 6.5h15.3l.8-3.5zm-26.6 42.6l-.1 1.2h1.7l-1.6-1.2zm3.6 2.8h-3.8c-.2 2.1-.4 4.2-.6 6.5h12.5l-.2-.2-7.9-6.3zm19.7-32.4h-16.5c-.7 2-1.4 4.2-2 6.5h16.9l1.6-6.5zm-24.7 55h56.1V216h-55.9c0 1.4-.1 2.8-.1 4.2-.1.7-.1 1.4-.1 2.1zm56.1-22.6H235c-1.1 2.5-2.8 4.8-5 6.5h22.5c-.1-2.2-.1-4.4-.1-6.5zm-14.6-8.1l-2.2 6.5h16.8v-6.5h-14.6z" fill="#F1BA39" fill-rule="nonzero"/><path d="M224.1 141.4h-8.3l-.7.1-.6 1.5h10.3c-.3-.5-.5-1.1-.7-1.6zm-3.1 25.9h30.3l-.2-1.6H205l-.6 1.6H221zm2.1-8.1H250c-.1-.6-.2-1.1-.3-1.6h-41.5c-.2.5-.5 1.1-.7 1.6h15.6zm7.9-8.1c-.6-.5-1.2-1-1.8-1.6h-17.4c-.2.5-.5 1.1-.7 1.6H231zm21.3 64.9v-1.6h-55.9c0 .5 0 1.1-.1 1.6h56z" fill="#F0EAE3" fill-rule="nonzero"/><path d="M223.5 140.1c.2.4.3.8.5 1.2.2.6.5 1.1.7 1.6 1.1 2.4 2.6 4.6 4.4 6.5.6.6 1.2 1.1 1.8 1.6 3.9 3.2 8.9 4.7 15.1 4.7.5 0 1.1 0 1.6-.1.5 0 .9-.1 1.4-.1 17.3-2.2 18.7-23.3 5.8-30.1-11.9-7-16.8-14.2-17.3-18.3 0-.1 0-.2-.1-.3v-.4c0-.3-.1-.6-.1-.9-1.6-9.3-10.5-15.5-19.8-13.9-4.8.8-9 3.7-11.6 7.8l.1.1c5.3 6.1 13.3 7.1 13.6 7.1-.1 1.9-.1 3.8-.1 5.6v3.5c.1 3.5.3 6.7.6 9.7.4 4.9 1.5 9.7 3.1 14.3.3.3.3.3.3.4z" fill="#AE7F2C" fill-rule="nonzero"/><path d="M233.7 222.4H205s-.8 3.5-1.9 9.2c-1.9 10-4.4 26.7-4.4 42.7v61.5h29.2l-.1-6.6-1-55.2 6.9-51.6z" fill="#394450" fill-rule="nonzero"/><path d="M192.7 168l-5.1 5.8h12.5l-7.4-5.8zm45.7 22l2.2-6.5h-23.7l-.7 2.8-3.6-2.8h-31.5l8.1 6.5h49.2zm-13.1-30.8h-2.2l-1.6 6.5h24.7l-12.5-6.5h-8.4zm0 8.1H221l-1.6 6.5h24.5l2.3-6.5h-20.9zm-1-13l-.8 3.3h7.1l-6.3-3.3zm-12.4 53.5c4.9 2.5 10.7 2.5 15.5 0h-15.5zm-9.7-32.4h-16l-5.7 6.5h30.1l-8.4-6.5zm32.8 24.3h-33.6l7.9 6.3.2.2H230c2.2-1.7 3.9-3.9 5-6.5zm.6-1.6l2.2-6.5h-46.6l6.5 5.3 1.6 1.2h36.3zM219 175.4l-1.7 6.5h23.9l.7-2.2 1.5-4.3H219z" fill="#F0BA3E" fill-rule="nonzero"/><path d="M216.9 183.5h35.4c0-.6 0-1.1-.1-1.6h-71.7l-.6.6 1.2 1h35.8zm.7-8.1H252c0-.5-.1-1.1-.1-1.6h-49.4c-.1.5-.3 1-.4 1.5l-1.9-1.5h-12.5l-1.4 1.6h31.3zm0 32.4h34.9v-1.6h-55.6c0 .5-.1 1.1-.1 1.6h20.8zm0-8.1h34.8v-1.6h-54.8c-.1.5-.1 1.1-.2 1.6h20.2zm7.7-8.1h27V190h-63.2l2 1.6h34.2z" fill="#F0EAE3" fill-rule="nonzero"/><path d="M172.8 156.4c-.3.1-.5.3-.6.5-.2.3-.1.7-.3.9-.2.3-.7.4-1 .7-.3.3-.3.9-.6 1.3-.2.3-.5.5-.8.7-.5.5-.7 1.3-.4 2 .3.5.7 1 1.1 1.4 2.4 2.5 5.8 3.7 8.1 6.4l6.4 6.6 7.9-9-7.6-6-2-1.7c-1.1-1.3-2.1-2.8-2.7-4.3-.3-.9-.8-1.8-1.6-2.3-.8-.2-1.6-.3-2.4-.3-.8-.1-1.6-.4-2.3-.8l-5.8-4.9c-.4-.4-1.1-.4-1.5 0-.4.4-.4 1.1 0 1.5l6.4 6.8c.1.2-.1.4-.3.5z" fill="#DE9885" fill-rule="nonzero"/><path d="M205.2 344l.1-.1s-.1 0-.1.1zm-4.8 2.6l-.7.3c.2-.1.5-.2.7-.3zm7.7-6.2h.2-.2zm-4.2-1.5c1.4 0 2.8.2 4.1.5-1.3-.3-2.7-.5-4.1-.5h-.1c-1.6-.1-3.1.4-4.3 1.3 1.2-.9 2.8-1.4 4.3-1.3h.1zm.5 2.4c-.3.1-.5.2-.8.3.3 0 .5-.2.8-.3l1.2-.6c-.4.2-.8.5-1.2.6z" fill="#FFF" fill-rule="nonzero"/><path d="M206.5 340.2c.2-.1.3-.2.5-.3-1-.2-2.1-.3-3.2-.3 1.1 0 2.1.1 3.2.3-.2.1-.3.2-.5.3zm1.8-.7c.1 0 .3.1.4.1-.2 0-.3-.1-.4-.1zm-1.3 2.6l-.6.6h.1c.2-.2.4-.4.5-.6zm-7.3.7c-.6-.2-.9-.8-.9-1.4 0-.5.3-.9.7-1.2-.4.3-.7.8-.7 1.3-.1.6.3 1.1.9 1.3.4.2.9.3 1.4.2-.4 0-.9 0-1.4-.2z" fill="#FFF" fill-rule="nonzero"/><path fill="#DE9885" fill-rule="nonzero" d="M243.7 326.2l.5.7 5.7-4.2-5.7 4.2z"/><path d="M241.7 339.8c-.1.2-.3.5-.4.7.2-.2.3-.4.4-.7zm-1.1 2c-.2.2-.3.4-.5.6.2-.2.3-.4.5-.6zm2.7-7.5c0 .3 0 .5-.1.8.1-.3.1-.6.1-.8zm-1.3 0c-.2.4-.4.9-.7 1.3-.6 1-1.4 2-2.3 2.8-.4.3-.8.6-1.3.7l-.3.1h.3c.5-.1.9-.4 1.3-.7.9-.8 1.7-1.7 2.3-2.8.3-.5.5-.9.7-1.4.4-.7.8-1.6 1.3-2.1v-.1c-.5.5-1 1.4-1.3 2.2zm-5.8 4.3c-.3-.4-.3-1-.2-1.5.5-1.5 1.4-2.8 2.7-3.6 1.3-1 2.8-1.7 4.4-2.2-1.6.5-3.1 1.3-4.4 2.3-1.3.8-2.3 2.1-2.7 3.6-.2.4-.1.9.2 1.4z" fill="#FFF" fill-rule="nonzero"/><path fill="#DE9885" fill-rule="nonzero" d="M212.1 336.6h11.6v-.8h-11.6z"/><path d="M223.9 340c0-1.5.2-3.3.2-3.3h-7.8v3.3h7.6z" fill="#FFF" fill-rule="nonzero"/><path d="M212.6 345.3c.6.5 1.9 1.1 2.5.5.3-.4.4-.9.1-1.3-.3-.5-.7-.9-1.2-1.2-1.2-.9-2.4-1.6-3.8-2.2l.3.6.1.1c.3.9.8 1.8 1.3 2.6.1.3.4.6.7.9zm-1.4-.5s0-.1 0 0c-.6-.9-1-1.8-1.4-2.8v-.1c-.2-.6-.5-1.3-1.1-1.5h-.5c-.4.6-.7 1.2-1.2 1.7l4.2 2.7z" fill="#0D2135" fill-rule="nonzero"/><path d="M211.6 336.6H210l-1.3 3c2.1.6 4.1 1.6 5.8 3 .6.4 1.1.9 1.5 1.5.4.7.3 1.7-.3 2.3-.3.3-.8.4-1.3.4-.9-.1-1.7-.4-2.3-1l-.6-.6c0 .1 0 .1-.1.2s-.2.2-.3.2c-.1 0-.2 0-.2-.1l-4.3-2.8c-.2.3-.5.5-.7.7l2.8 2.8c.2.2.2.4 0 .6-.1.1-.2.1-.3.1-.1 0-.2 0-.3-.1l-2.9-2.8c-.3.3-.6.5-1 .7l1 1.7c.1.2 0 .4-.1.5-.1 0-.1.1-.2.1s-.3-.1-.3-.2l-1-1.7c-.3.2-.7.4-1 .6l1 1.7v.1c0 .2-.1.3-.2.4-.1 0-.1.1-.2.1s-.3-.1-.4-.2l-1-1.8c-.4.2-.9.4-1.3.6l.8 1.2c.1.2.1.4-.1.6-.1 0-.1.1-.2.1s-.3-.1-.3-.2l-.8-1.4c-3.1 1.1-6.5 1.8-9.4 2.9h34.3l.3 3.6-.3-3.6-.7-9.8h-7.7v-3.3h-4.8v-.1z" fill="#0D2135" fill-rule="nonzero"/><path d="M210.9 345.5c.1 0 .1.1.2.1s.3-.1.3-.2 0-.1.1-.2c-.1-.1-.2-.3-.3-.4l-4.1-2.7c-.2.2-.3.4-.5.6l4.3 2.8zm-2.6 1.4c.1 0 .2 0 .3-.1.2-.2.2-.4 0-.6l-2.8-2.8c-.2.1-.3.3-.5.4l-.1.1 2.9 2.8c0 .2.1.2.2.2zm-3.4.1c.1 0 .1 0 .2-.1.2-.1.3-.4.1-.5l-1-1.7c-.2.1-.4.3-.7.4l1 1.7c.1.1.3.2.4.2zm-2.1.8c.1.1.2.2.4.2.1 0 .1 0 .2-.1s.2-.2.2-.4v-.1l-1-1.7c-.2.1-.5.2-.7.3l.9 1.8zm-2.3.4c.1.1.2.2.3.2.1 0 .1 0 .2-.1.2-.1.2-.4.1-.6l-.8-1.2c-.2.1-.5.2-.7.3l.9 1.4z" fill="#FFF" fill-rule="nonzero"/><path fill="#EDEEEF" fill-rule="nonzero" d="M211.1 349.8h-20.8v3.6h34.6l-.3-3.6z"/><path d="M208.7 340.4c.6.2.9.9 1.1 1.5v.1c.4 1 .8 1.9 1.4 2.7.1.2.2.3.3.4.2.2.3.4.6.6.7.6 1.5.9 2.3 1 .5 0 .9-.1 1.3-.4.6-.6.7-1.5.3-2.3-.4-.6-.9-1.1-1.5-1.5-1.8-1.4-3.7-2.4-5.8-3-.1 0-.3-.1-.4-.1-.1 0-.2 0-.3-.1-1.3-.3-2.7-.5-4.1-.5h-.1c-1.5-.1-3.1.4-4.3 1.3-.4.3-.6.8-.7 1.2 0 .6.4 1.1.9 1.4.5.2 1 .3 1.5.2 1.2-.1 2.4-.4 3.5-.9.4-.2.9-.4 1.3-.7.6-.4 1.4-.8 2.1-1h.2c.1.1.3.1.4.1zm3.1 3.9c-.5-.8-1-1.7-1.3-2.6l-.1-.1-.3-.6c1.3.6 2.6 1.3 3.8 2.2.5.3.9.7 1.2 1.2.2.4.2 1-.1 1.3-.6.6-1.9 0-2.5-.5-.2-.2-.5-.5-.7-.9zm-8.2-2.7c-.8.3-1.6.5-2.5.6-.4 0-.7 0-1.1-.1-.1 0-.1-.1-.2-.1-.2-.1-.3-.3-.3-.5 0-.3.2-.5.5-.7 1.1-.8 2.5-1.2 3.8-1.1 1.1 0 2.1.1 3.2.3-.2.1-.3.2-.5.3-.3.2-.6.3-.9.5l-1.2.6c-.3 0-.5.2-.8.2z" fill="#FFF" fill-rule="nonzero"/><path fill="#DE9885" fill-rule="nonzero" d="M243.7 326.2l.5.7 5.7-4.2 3.7-2.7-.4-.6h-.1z"/><path d="M249.5 327.1l6-4.4.1-.1c-.9-1.3-1.8-2.8-1.8-2.8l-10.1 7.3 3.8-2.7 2 2.7z" fill="#FFF" fill-rule="nonzero"/><path d="M236.3 353.2l28.1-20.3-28.1 20.3zm25.7-23l2.3 2.7-2.3-2.7-6.3-7.5-.2.1-6 4.4-1.9-2.7-3.8 2.7-1.3 1 .7 3.1h.2c.1 0 .1-.1.2-.1 1.9-.6 3.9-.8 6-.8.7 0 1.5.1 2.1.4.8.4 1.2 1.2 1.1 2-.3 1.4-2.1 1.7-3.2 1.6-.3 0-.5-.1-.7-.2v.1c0 .2-.1.4-.3.4l-5.2.3c0 .3-.1.7-.2 1l3.9.6c.2 0 .4.2.3.4 0 .2-.2.3-.4.3h-.1l-3.9-.6c-.1.4-.2.8-.4 1.2l1.8.8c.2.1.3.3.2.5-.1.1-.2.2-.4.2h-.2l-1.8-.8c-.2.3-.3.7-.5 1l1.8.8c.2.1.3.3.2.5-.1.1-.2.2-.4.2h-.2l-1.9-.8c-.2.4-.5.8-.7 1.2l1.3.5c.2.1.3.3.2.5-.1.2-.2.3-.4.3h-.2l-1.5-.6c-1.9 2.7-4.2 5.2-5.9 7.8l28-19.8z" fill="#0D2135" fill-rule="nonzero"/><path d="M248.1 334c-.9-.4-1.8-.8-2.7-1.4l-.1-.1c-.5-.3-1.2-.8-1.8-.6-.1 0-.2.1-.3.2v.1c.1.7.1 1.4 0 2l4.9-.2zm3.8-1.4c0-.5-.2-.9-.7-1.2-.5-.2-1.1-.3-1.7-.3-1.5 0-2.9.1-4.3.4v.1c.2.1.4.3.6.4l.1.1c.8.5 1.7 1 2.6 1.3.4.2.7.3 1.1.3.8 0 2.1-.3 2.3-1.1z" fill="#0D2135" fill-rule="nonzero"/><path d="M248.4 334.8c.2 0 .4-.2.4-.4v-.1c-.2-.1-.4-.1-.6-.2l-4.8.3c0 .3 0 .5-.1.8l5.1-.4zm-1.5 2.7c.2 0 .4-.1.4-.3 0-.2-.1-.4-.3-.4l-3.9-.6c-.1.3-.1.5-.2.8l4 .5zm-2.7 2.1c.2 0 .3-.1.4-.2.1-.2 0-.4-.2-.5l-1.8-.8c-.1.2-.2.5-.3.7l1.8.8h.1zm-.8 1.8c.2 0 .3-.1.4-.2.1-.2 0-.4-.2-.5l-1.8-.8c-.1.2-.2.4-.4.7l1.9.8h.1zm-1.7 1.6c.2 0 .3-.1.4-.2.1-.2 0-.4-.2-.5l-1.3-.5c-.1.2-.3.4-.4.7l1.5.6v-.1z" fill="#FFF" fill-rule="nonzero"/><path fill="#EDEEEF" fill-rule="nonzero" d="M234.2 350.3l2.1 2.9 28.1-20.3-2.4-2.7z"/><path d="M239 338.4c.9-.8 1.7-1.7 2.3-2.8.2-.4.5-.9.7-1.3.4-.8.8-1.7 1.3-2.1.1-.1.2-.2.3-.2.5-.2 1.2.3 1.8.6l.1.1c.8.5 1.7 1 2.7 1.4.2.1.4.1.6.2.2.1.5.1.7.2 1.1.1 2.9-.3 3.2-1.6.1-.8-.3-1.6-1.1-2-.7-.3-1.4-.4-2.1-.4-2 0-4 .3-6 .8-.1 0-.1.1-.2.1h-.2c-1.6.5-3.1 1.3-4.4 2.2-1.3.8-2.3 2.1-2.7 3.6-.2.5-.1 1 .2 1.5.3.4.7.6 1.2.6l.3-.1c.5-.2.9-.5 1.3-.8zm10.6-4.8c-.4-.1-.8-.2-1.1-.3-.9-.4-1.8-.8-2.6-1.3l-.1-.1c-.2-.1-.4-.2-.6-.4v-.1c1.4-.3 2.9-.4 4.3-.4.6 0 1.2.1 1.7.3.4.2.7.7.7 1.2-.2.9-1.5 1.2-2.3 1.1z" fill="#FFF" fill-rule="nonzero"/><path d="M107.2 220.2c-.7-.5-1.3-1.1-1.9-1.7l-3.7-3.8c-.2 1.9-.8 3.7-1.8 5.4h7.4v.1zM9.6 123.5h.6c-.2-.1-.5-.2-.7-.2-.5-.1-1.1 0-1.6.2h1.7z" fill="#FFE8E2" fill-rule="nonzero"/><path d="M118.4 202.2l.6-1.2h-1.6c.6.7 1 1.1 1 1.2z" fill="#5B6A6B" fill-rule="nonzero"/><path d="M119 201l4.1-8.6h-13.3c3.6 3.8 6.3 6.9 7.6 8.6h1.6z" fill="#6FA9DC" fill-rule="nonzero"/><path d="M71.4 335.4h5.3l1.5-6.9H66.3c1.6 2.3 3.3 4.6 5.1 6.9z" fill="#808D38" fill-rule="nonzero"/><path d="M51 305.6c.3.4.5.9.8 1.3v-13H51v11.7zm33.1 29.8L81.8 346c-1.3-.3-2.5-.8-3.4-1.6 2.5 3.1 5.1 6.2 7.7 9.2h29c-2.6-12.6-19.5-1-18.4-16.3 0-.6.1-1.2.1-1.8H84.1v-.1zm-12.7 0c2 2.6 4.1 5.3 6.1 7.8-.8-1.3-1.2-3.2-1-6 0-.6.1-1.2.1-1.8h-5.2z" fill="#0D2135" fill-rule="nonzero"/><path d="M85.4 272.2c3.4 2 5.5 5.6 5.5 9.5 0 1.7-.4 3.4-1.2 4.9-2.1 4.3-6.5 7.1-11.3 7.1h-5.3l-7.6 33.5c.3.4.5.7.8 1.1h19.2l1.4-6.5 10.8-49.1-12.3-.5z" fill="#493D57" fill-rule="nonzero"/><path fill="#808D38" fill-rule="nonzero" d="M84.1 335.4h12.8l1.4-6.6H85.5z"/><path d="M82 134.2c-.5.4-.9.7-1.4 1l7.4.7.3-2.8.8.1-.6 6.4-.8-.1.3-2.8-4.3-.4-4.3-.4c-.7.4-1.4.8-2.2 1.1-.2-.8-.6-1.4-1.2-2-.4-.4-.8-.6-1.2-.8 0 0-.1 0-.1-.1-1.3-.7-2.9-.7-4.2 0 0 0-.1 0-.1.1-.4.2-.8.5-1.2.8-.1.1-.1.2-.2.2-.1.1-.2.3-.3.4-.1.1-.1.2-.2.3-.1.2-.2.3-.3.5 0 .1-.1.1-.1.2-.2.5-.3 1.1-.3 1.7 0 .6.1 1.2.4 1.8.7 1.6.9 4 .5 5.9-.2 1-.6 1.9-1.2 2.5-1.5 1.3-3.5 2-5.5 2.1 2.6 4.3 2.1 7.2-.7 11.3h.2l-.2-.1 13.8 3.9c1.7.3 3.3.4 5 .4.6 0 1.1-.1 1.7-.1-1.1-4.9.3-9.7 2.2-11 3.3-2.2 4.9-3.3 5.2-6.1.1-.6.4-4.2.4-4.9l1.6-.9c.9-.6 1.2-1.8.7-2.8v-.1c-1.2-1.7-1.9-3.6-2.2-5.6 0-.3-.1-.7-.1-1v-.1c-.2-1.7-.7-3.4-1.4-5-.1-.3-.3-.6-.4-.9-1.1 1.8-2.4 3.4-3.8 4.8-.7.7-1.3 1.3-2 1.8zM61.5 162c.9.4 8.1 4 15.4 7.4L61.5 162z" fill="#955646" fill-rule="nonzero"/><path d="M79.3 135.9l4.3.4 4.3.4-.3 2.8.8.1.6-6.4-.8-.1-.3 2.8-7.4-.7c-.4.3-.8.5-1.2.7z" fill="#F8CBDB" fill-rule="nonzero"/><path d="M52.3 136.1c.4 1.4 1.6 2.4 2 3.8.2 1.2.2 2.4 0 3.6.1 3 2.1 5.7 4.9 6.8.9.3 1.9.5 2.8.5 2 0 4-.8 5.5-2.1.6-.6 1-1.5 1.2-2.5.4-1.9.2-4.3-.5-5.9-.2-.6-.4-1.2-.4-1.8 0-.6.1-1.2.3-1.7 0-.1.1-.1.1-.2.1-.2.2-.3.3-.5.1-.1.1-.2.2-.3.1-.1.2-.3.3-.4.4-.4.8-.8 1.3-1.1 0 0 .1 0 .1-.1.1-.1.2-.1.3-.2 1.3-.5 2.8-.5 4 .2 0 0 .1 0 .1.1.4.2.8.5 1.1.8.6.6 1 1.2 1.2 2 .7-.3 1.5-.7 2.2-1.1.4-.2.8-.5 1.2-.7.5-.3 1-.7 1.4-1l.1-.1c.7-.5 1.3-1.1 1.9-1.6 1.5-1.4 2.8-3 3.9-4.8 2.8-4.4 2.3-10.1-1.3-13.9-1.9-2-4.8-2.7-7.5-1.8-1.6-1.9-4-2.7-6.4-2.3-.5.1-1 .2-1.5.4-1 .5-1.9 1.2-2.9 1.6-2 .8-4.3.2-6.3.7-.5.1-1 .3-1.5.7-.9.6-1.5 1.6-2.2 2.4-.3.3-.5.6-.8.8-1.2 1-2.8 1.3-4 2.3-1.1 1-1.8 2.3-2 3.8 0 .3-.1.6-.1.9v.1c0 1.1.1 2.2.4 3.3.4 1.2.6 2.5.7 3.7 0 1.2-.3 2.4-.4 3.5.1.8.1 1.5.3 2.1z" fill="#2D1C17" fill-rule="nonzero"/><path d="M75.2 165.9L61.4 162l.2.1 15.3 7.3c1.8.9 3.7 1.7 5.4 2.5.2.1.5.2.7.3 1.2.6 2.3 1.2 3.4 1.8-2.3-2-3.9-4.8-4.5-7.8-.6.1-1.1.1-1.7.1-1.7 0-3.3-.1-5-.4z" fill="#F0EAE3" fill-rule="nonzero"/><path d="M61.4 162c-4.4 5-14.6 8.7-18.2 24.3h19c10.5 0 19 8.5 19 19v34.2c0 .6 0 1.2-.1 1.8 0 .2-.1.4-.1.7 0 .4-.1.7-.2 1.1-.1.3-.1.6-.2.8-.1.3-.1.6-.2.9l-.3.9c0 .1-.1.3-.1.4h21c1.1-6.9.1-10.8-1.1-14.4-.5-1.5-1.1-3-1.6-4.6-1.1-3.5.2-4.5 1.5-6.8.9-1.7 1.5-3.5 1.8-5.4l3.8 3.8c.6.6 1.2 1.2 1.9 1.7 2.6 1.9 5.7 2.9 8.8 2.9 3.2 0 6.4-.9 9.1-2.9l.2-.2c2.2-1.7 4-4 5-6.6l.2-.4 2.7-6.9 2-5.1 3.4-8.6 1.1-2.7-.8-.7-10-8.6-5.8 11.9-4.2 8.5-.6 1.2c-.1-.1-.4-.5-1-1.2-1.3-1.6-3.9-4.8-7.6-8.6-3.5-3.6-7.1-6.9-11-10l3.5-4.3-3.2-2.7-6.9-6-5.8 4.5h-.1c-1.1-.6-2.3-1.2-3.4-1.8l-.6-.3c-1.8-.8-3.6-1.6-5.5-2.5-7.7-3.5-15.4-7.3-15.4-7.3z" fill="#0D2135" fill-rule="nonzero"/><path d="M66.8 257.8c-.1 0-.2.1-.3.1-.3.1-.7.1-1 .2-.3 0-.5.1-.8.1-.3 0-.5.1-.8.1-.6.1-1.1.1-1.7.1H42.8v3.2c2 4.6 6.1 7.8 11 8.6h24.6c2.4 0 4.8.7 6.9 1.9l12.3.7L87 322l-1.4 6.5-.1.3h27l15-57.9c2.8-10.6-3.6-21.5-14.2-24.2-1.6-.4-3.3-.6-5-.6H80c-2.2 5.7-7.1 10.2-13.2 11.7zm-24.9.6c0 .3.1.5.2.7v-.7h-.2z" fill="#937FAC" fill-rule="nonzero"/><path d="M139 189.1l6.1-16.9c.8-1.6 1.9-3 3.3-4 .8-.6 1.5-1.2 2.1-1.9.6-.8.7-1.8.2-2.6.7-.3 1-1.1.6-1.8 0-.1-.1-.1-.1-.2.5-.3.8-.8.9-1.4 0-.6-.2-1.1-.7-1.4.4-.4.7-1 .8-1.6 0-.5-.2-.9-.6-1.2-.3-.3-.6-.5-1-.5l-.3 1.1-.5 1.8-6.7 1.1c-.7.3-1.5.1-2-.6l-.6-3.5c0-.3-.2-.5-.3-.7l-.1-.1c-.3-.3-.8-.4-1.2-.2-.6.2-1 .7-1 1.3l.1 5h-.1v1.4l-1.2 2.5-1.2 2.6-6.4 13.4 9.9 8.4zm-36.7-11l7-7.9 2.8-3.2c2.7-2.9 6.4-4.6 9.1-7.5.8-.8 1.4-1.7 2.1-2.5.9-1.1 1.7-2.2 2.6-3.3.1-.2.2-.3.2-.5s-.1-.4-.2-.6c-.3-.3-.8-.4-1.1-.1l-5 4.7 5-5.7c.3-.4.3-.9 0-1.2-.3-.4-.9-.4-1.3-.1l-5.5 5 5.8-6.1c.3-.3.3-.8 0-1.2-.3-.4-.9-.4-1.2-.1l-6 5.5 5-5.1c.2-.2.3-.4.3-.7 0-.2-.1-.5-.2-.6-.3-.4-.9-.4-1.3-.1l-7.5 6c-.3.3-.7.5-1.1.6-.4.1-.8 0-1.1-.3-.3-.3-.3-.8-.1-1.1l1.9-2.3c.2-.2.3-.5.3-.8 0-.7-.6-1.3-1.3-1.3-.3 0-.6.1-.9.3l-4.3 3.9c-1 .9-1.7 2.1-2 3.4-.4 1.3-.5 2.6-.9 3.9-.4 1.4-1.2 2.6-2.3 3.4l-8.6 6.8 6.9 5.9 2.9 2.9z" fill="#955646" fill-rule="nonzero"/><path d="M154 142.6l.3-1.3c.4-1.4-.5-2.9-1.9-3.3l-11.1-3c-1.4-.4-2.9.5-3.3 1.9l-3.1 11.8 2.8-10.5h.1l16.2 4.4zm-9.7-4.5c.1-.2.3-.3.5-.3l3.1.8c.1 0 .1.1.1.1l.1.1s0 .1.1.2v.1s0 .1-.1.1v.1c-.1.1-.2.1-.3.1h-.1l-3.1-.8c-.1 0-.2-.1-.3-.2v-.3zm-6.6 24v-1.4l-5.6-1.5-.4 1.3c-.4 1.4.5 2.9 1.9 3.3l2.9.8 1.2-2.5z" fill="#F0EAE3" fill-rule="nonzero"/><path d="M137.7 155.7c0-.6.4-1.1 1-1.3.4-.1.9 0 1.2.2l.1.1c.1.1.3.3.3.5v.2l.6 3.5c.5.6 1.3.9 2 .6l6.7-1.1.5-1.8.3-1.1.7-2.5 2.8-10.5h-.1l-16.2-4.3-2.8 10.5-2.8 10.5 5.5 1.5h.1l.1-5zm6.9-17l3.2.9h.1c.1 0 .2-.1.3-.1v-.1c0-.1.1-.1.1-.2s0-.1-.1-.2c0 0 0-.1-.1-.1l-.1-.1-3.1-.8c-.2-.1-.4 0-.5.3v.4c0-.1.1-.1.2 0z" fill="#F58B6E" fill-rule="nonzero"/><path d="M90.9 281.8c-.1-3.9-2.2-7.6-5.6-9.6-2.1-1.3-4.5-1.9-6.9-1.9H42.9v.9H42v-.9h-9.8c2.6 5.6 5.3 11 8.1 16.4h49.3c.9-1.5 1.3-3.2 1.3-4.9z" fill="#2767B0" fill-rule="nonzero"/><path d="M89.7 286.7H40.4c1.3 2.4 2.5 4.8 3.8 7.1h34.2c4.8 0 9.2-2.8 11.3-7.1zM42 271.2h.8v-12.8H42v12.8z" fill="#0D2135" fill-rule="nonzero"/><path d="M80.7 243.8c.1-.3.1-.5.2-.8.1-.4.1-.7.2-1.1 0-.2.1-.4.1-.7.1-.6.1-1.2.1-1.8v-34.2c0-10.5-8.5-19-19-19H22.7c-6 0-11.4 2.8-14.9 7.3-.1.2-.3.4-.4.5.6 2.9 1.2 5.8 1.9 8.7 1.3 5.9 2.8 11.7 4.5 17.4 1.1 3.8 2.2 7.6 3.5 11.4 2.9 9.1 6.2 18.1 9.9 26.9h34.9c.6 0 1.1 0 1.7-.1.3 0 .5-.1.8-.1.3 0 .5-.1.8-.1.3-.1.7-.1 1-.2.1 0 .2-.1.3-.1 6.1-1.5 11.1-6 13.2-11.8 0-.1.1-.3.1-.4l.3-.9c.2-.3.3-.6.4-.9z" fill="#2767B0" fill-rule="nonzero"/><path d="M-34 1h800v480H-34z" stroke="#FFF" stroke-width="1.656"/><g><path d="M704.501 127.847v.898l.221-.062c-.066-.28-.139-.56-.22-.836h-.001zm-50.397 91.395h38.05l.014-.3h-37.98l-.084.3z"/><path d="M649.667 218.942h-65.812v.3h70.25c.028-.1.054-.2.083-.3h-4.521z" fill="#FFE8E2" fill-rule="nonzero"/><path fill="#F9D581" fill-rule="nonzero" d="M592.57 171.32h-11.86l.687 1.577.832.831-.327.327 6.195 14.224v-.001z"/><path d="M477.446 81.379H664.35v.793H477.446v130.332h12.135c-.616-3.262.076-7.079 1.62-10.857l11.701-29.902a21.015 21.015 0 0119.577-13.359h10.35c5.127-6.772 4.577-10.091 1.626-14.884-.998-1.64-2.284-3.447-3.711-5.624a17.163 17.163 0 01-2.952-9.657c0-9.54 7.735-17.276 17.276-17.276 4.833 0 9.195 1.98 12.329 5.179l.008.008c4.882 3.876 8.997 4.593 8.997 4.593-2.994.413-4.503 0-4.503 0 1.815 2.276 3.678 3.513 3.678 3.513-1.261.025-2.564-.156-3.818-.453.223.8.38 1.633.47 2.482h.008v.091c.017.354.042.692.083 1.022v.009c.305 2.506 1.377 4.337 2.218 5.69.676 1.072.306 2.449-.627 2.853l-1.566.866c0 .767-.355 4.313-.42 4.964-.273 2.862-1.964 4.148-5.765 5.22-4.456 1.255-3.296 8.198-2.501 11.404h7.645c3.675 0 7.197.959 10.275 2.684v-52.153l-1.17 1.171-2.333-2.333 3.503-3.502v-3.578h3.578l4.74-4.74 2.332 2.333-2.408 2.407h79.175l-2.407-2.407 2.332-2.333 4.74 4.74h3.578v3.578l3.502 3.502-2.332 2.333-1.17-1.17v62.402h-61.84l-4.672 27.524c-1.19 7.007-8.167 11.458-15.022 9.582l-1.85-.507v4.585h33.587l-1.808-17.477h7.509l-.217-2.547-.085-1.012-.238-2.793a.625.625 0 01.57-.676l.31-.026a.625.625 0 01.676.57l.237 2.793.314 3.691h.96l-.128-6.117-.06-2.802a.625.625 0 01.613-.639l.31-.006a.625.625 0 01.639.612l.059 2.802.021 1.015.108 5.135h1.026l1.15-9.565.336-2.783a.625.625 0 01.695-.546l.309.037a.625.625 0 01.546.696l-.335 2.783-.121 1.008-1.007 8.37h3.393l-1.808 17.477h11.735l-.394-2.33h2.518v-.069h-2.518v-3.226h8.458v3.226h-2.59v.068h2.518l-.392 2.331h41.768c.03-.456.061-.909.093-1.359h-.028s-.168-5.02-.38-12.308l-16.55-.162-.117-9.306-6.458-.636a5.847 5.847 0 00-2.327.401l-6.138 2.409a3.186 3.186 0 01-2.197.047l-2.941-1.01a1.571 1.571 0 01-1.025-1.136l-.106-.466-.75.071c-.517.05-1-.265-1.161-.76l-.16-.5-2.754.836a.985.985 0 01-1.205-.581.966.966 0 01.425-1.187l6.669-3.816a.538.538 0 00-.182-1c-1.014-.174-2.32-.508-3.332-1.14-.778-.486-.358-1.68.558-1.583l9.281.982c.451.047.893.14 1.324.28.974.317 3.225.885 6.474.729l5.9-.16v-.017l16.296-.408c-.115-5.016-.217-10.124-.284-14.87-.277-19.567 10.794-29.145 12.533-36.963l.524-.146v-.898c-.683-2.29-1.927-4.347-4.18-4.79l-.007.002-1.456-.154-.018-.004a29.735 29.735 0 01-1.25-.122l-.485-.054c-3.463-.455-3.905-1.325-4.954-5.764-.11-.582-.284-1.021-.492-1.358-.898-1.433-2.477-1.046-2.85-2.469-.413-1.582.8-3.8.294-7.376a9.838 9.838 0 00-.208-1.125.251.251 0 00-.013-.082l.008-.002c-.468-3.2.001-6.469 1.35-9.409-2.09-.314-3.975-1.622-5.236-4.64-.546-1.303.386-3.449 1.717-3.967 1.114-.429 2.411-.124 3.53-.537.97-.358 1.69-1.212 2.68-1.49 1.244-.36 2.54.267 3.835.266 1.658.01 3.226-1.01 4.879-.856 1.3.125 1.796.564 2.856.827V68.306H477.446v13.073zm14.007 20.72l-.113-3.297 25.48-.877.113 3.297-25.48.877zm1.381-7.255l-.125-2.47 33.749-1.71.125 2.47-33.749 1.71z" fill="#F9D581" fill-rule="nonzero"/><path d="M650.751 212.504l-.927 5.513-.157.925h42.5a285.2 285.2 0 01.352-6.438h-41.768zm-6.51 6.438l-.157-.925-.933-5.513h-11.735l-.666 6.438h13.491zm-26.133 0l-.53-5.123-.136-1.315h-33.587v6.438h34.253zm-128.527-6.438h-12.135v6.438h16.36c-2.404-1.59-3.733-3.836-4.225-6.438z" fill="#F1BA39" fill-rule="nonzero"/><path fill="#0D2135" fill-rule="nonzero" d="M664.35 81.379H477.446v.793H664.35z"/><path fill="#1B4481" fill-rule="nonzero" d="M492.71 92.372l33.748-1.707.125 2.47-33.749 1.708z"/><path fill="#D46827" fill-rule="nonzero" d="M491.34 98.802l25.48-.876.113 3.297-25.48.876z"/><path d="M654.104 219.242h-70.25v11.545H691.84a388.2 388.2 0 01.314-11.545h-38.05z" fill="#798C9B" fill-rule="nonzero"/><path fill="#F0EAE3" fill-rule="nonzero" d="M644.241 218.942l-.157-1.047h5.74l-.157 1.047.157-.925.927-5.513.392-2.33h-2.518v3.872h-3.35v-3.873h-2.518l.394 2.331.933 5.513z"/><path d="M651.215 210.105v-3.226h-8.458v3.226h8.458zm-7.131 7.79l.157 1.047h5.426l.157-1.047h-5.74z" fill="#0D2135" fill-rule="nonzero"/><path fill="#B3C8CA" fill-rule="nonzero" d="M645.275 214.046h3.35v-3.941h-3.35v.068z"/><path d="M631.294 182.866a.625.625 0 00-.546-.696l-.309-.037a.625.625 0 00-.695.546l-.335 2.783 1.55.187.335-2.783z" fill="#71C28F" fill-rule="nonzero"/><path fill="#D3E175" fill-rule="nonzero" d="M630.838 186.657l-1.55-.187.12-1.008-1.15 9.565h1.573z"/><path fill="#EDF6F2" fill-rule="nonzero" d="M630.838 186.657l.121-1.008-1.55-.187-.121 1.008z"/><path d="M627.044 186.075a.625.625 0 00-.639-.612l-.31.006a.625.625 0 00-.612.639l.059 2.802 1.56-.033-.058-2.802z" fill="#71C28F" fill-rule="nonzero"/><path fill="#BC762E" fill-rule="nonzero" d="M627.124 189.892l-1.56.033-.022-1.015.129 6.117h1.561z"/><path fill="#EDF6F2" fill-rule="nonzero" d="M627.124 189.892l-.021-1.015-1.561.033.021 1.015z"/><path d="M624.16 188.543a.625.625 0 00-.677-.57l-.31.026a.625.625 0 00-.57.676l.238 2.793 1.555-.132-.237-2.793h.001z" fill="#71C28F" fill-rule="nonzero"/><path fill="#0D2135" fill-rule="nonzero" d="M624.396 191.336l.086 1.012-1.556.132.217 2.547h1.567z"/><path fill="#EDF6F2" fill-rule="nonzero" d="M624.396 191.336l-1.555.132.085 1.012 1.556-.132z"/><path fill="#F0EAE3" fill-rule="nonzero" d="M631.536 211.343l-.786 7.6.666-6.439 1.808-17.477h-17.59l1.808 17.477.136 1.315z"/><path fill="#F4ABC4" fill-rule="nonzero" d="M631.536 211.343l-13.958 2.476.53 5.123h12.642z"/><path d="M667.239 104.253v-3.578h-3.578l3.578 3.578zm-19.933 52.087h-39.363l-1.248 7.352h40.61v-7.353l.001.001zm-30.485 3.091h-7.908v-.412h12.352v.412h-4.444zm8.979-22.249h-1.763v-.412h1.763v-4.857h-4.03v10.832h4.03v-5.563zm-4.03 5.975h4.03v8.062h-4.03v-8.062z" fill="#F0EAE3" fill-rule="nonzero"/><path d="M647.306 151.63h-15.022v-8.473h-6.072v8.473H609.21a9.452 9.452 0 00-.909 2.6l-.288 1.697h39.293v-4.297zm-17.496-8.885h2.474v-5.563h-6.072v5.563h3.598zm-14.638-26.917h4.031v4.709h-4.031v-4.709z" fill="#F0EAE3" fill-rule="nonzero"/><path d="M580.576 171.011l.135.31h11.86l1.904-7.217h-17.856v-.412h17.964l1.94-7.353H583.63v-.412h13.003l1.133-4.297H581.27v11.444h-.413V151.63h-4.03v11.444h-.413v-49.617h.412v7.08h4.031v-7.08h.413v7.08h33.49v-5.121h31.451v.412h-26.595v4.709h6.596v16.233h6.072v-9.5h-4.02v-.412h4.02v-6.317h22.196v-10.589h-81.159v-.412h81.159v-.619h.413v12.817h.11v34.189h4.127v.412h-4.128v7.825h-7.696v-.06h-40.681l-1.225 7.216h61.839v-62.402l-8.243-8.243h-79.175l-8.242 8.242v52.153a20.999 20.999 0 018.997 9.941zm12.232-57.76h20.548v.412h-15.693v4.124h-.412v-4.124h-4.031v4.124h-.412v-4.536z" fill="#F0EAE3" fill-rule="nonzero"/><path d="M647.306 121.738h7.174v-.785h-21.784v5.905h14.61v-5.12zm-43.839 13.979a1.12 1.12 0 01-1.08.12l1.928 2.038c.438-1.052.76-2.157.704-3.287l-1.552 1.129zm-31.888-35.042v3.578l3.578-3.578h-3.578zm29.874 37.847c-.206.33-.342.726-.271 1.11.07.383.389.735.778.751.465.02.98-.285 1.306-.617.12-.12.211-.264.305-.405l-1.641-1.736c-.062.311-.298.612-.477.897zm10.351 9.544c-.889.985-1.723 2.012-2.37 3.152h5.352l-1.783-1.885-1.199-1.267zm20.892-20.796v9.5h4.237v.412h-4.237v5.563h1.557v.412h-1.557v8.061h14.61V127.27h-14.61zm-55.871-6.321h4.031v30.27h-4.031v-30.27zm44.945 0h4.03v10.552h-4.03v-10.552z" fill="#F0EAE3" fill-rule="nonzero"/><path d="M597.92 148.415c-.131-1.242-.704-2.393-.96-3.616-.455-2.164.156-4.526 1.602-6.198.537-.622 1.079-1.3 1.83-1.632.239-.105.496-.176.755-.17l-3.562-3.768-.892-1.562-.659-1.154 1.186.726 1.499.918-.062.058.062-.058 3.003 3.175a1.13 1.13 0 01.396-1.245l2.908-2.18c2.193-1.55 3.361.332 3.33 1.827-.03 1.495.001 3.875.001 3.875.496.474 1.398.057 2.043.293.608.222.894.948 1.473 1.239.562.283 1.3.103 1.811.47.236.167.388.43.608.617.297.252.694.35 1.03.55.896.534 1.194 1.862.613 2.728-.86 1.28-1.964 2.437-3.068 3.61l.573.605.697.737 1.926 2.037a.625.625 0 01-.025.884l-.04.037h5.36v-19.305h-6.393v-.412h6.391v-10.552H581.27v30.27h16.564c.13-.896.178-1.947.088-2.804h-.002z" fill="#F0EAE3" fill-rule="nonzero"/><path d="M667.239 108.918l1.17 1.17 2.332-2.333-3.502-3.502-3.578-3.578-4.74-4.74-2.332 2.333 2.407 2.407 8.243 8.243zm-85.01-10.65l-2.333-2.333-4.74 4.74-3.577 3.578-3.503 3.502 2.332 2.333 1.17-1.17 8.243-8.243 2.408-2.407zm-.832 74.629l.505 1.158.327-.327-.832-.831z" fill="#D46827" fill-rule="nonzero"/><path d="M580.856 113.457h.412v7.08h-.412v-7.08zm0 38.173h.412v11.443h-.412V151.63zm69.57-42.09h4.055v.412h-4.055v-.412zm-20.616 33.205h2.475v.412h-2.475v-.412zm2.886 0h1.557v.412h-1.557v-.412zm22.306 13.182h4.128v.412h-4.128v-.412zm-22.306-19.157h4.236v.412h-4.236v-.412zm-6.69 5.975h.206v-5.563h-.412v5.563h.206zm.206.412h-.412v8.061h-4.03v.412h4.442v-8.473zm-.412-22.208V131.5h.206v.412h-.206v4.857h.412v-16.233h-4.442v.412l4.03.001zm-44.944 0h.412v30.27h-.412v-30.27z" fill="#4684C4" fill-rule="nonzero"/><path d="M626.006 131.913v-.412h-4.236v.412H626.006zm-17.093-18.662h4.443v.412h-4.443v-.412zm-11.662.412h.412v4.124h-.412v-4.124zm21.952 2.165h.412v4.709h-.412v-4.709zm22.565-.412h4.442v.412h-4.442v-.412zm-24.947 43.603h4.443v.412h-4.443v-.412zm-40.408-45.562h.412v7.08h-.412v-7.08zm0 38.173h.412v11.443h-.412V151.63zm4.65 12.062h-4.444v.412h17.856l.108-.412h-13.52zm25.632 0l-.07.412h40.68v-.412h-40.61zm48.198-54.771h-.413v11.62h.413v-11.62zm-77.129.619h-4.443v.412h77.105v-.412h-72.662zm48.242 33.617h3.804v-.412h-8.04v.412H626.006zm21.3 12.77h-39.293l-.07.412h39.363v-.412zm-59.234 0h-4.443v.412h12.894l.109-.412h-8.56zm35.965-19.157v.412h8.247v-.412h-8.247z" fill="#4684C4" fill-rule="nonzero"/><path d="M597.833 151.218h-21.007v-30.27h44.531v10.553h.206v.412h-.206v19.305H616l-.186.176a.625.625 0 01-.884-.025l-.143-.15h-5.353a10.15 10.15 0 00-.223.411h12.56v-31.093h-6.599v.206h-.412v-.206h-38.347v31.093h21.352l.022-.08c.018-.105.03-.222.046-.332zm34.451-8.473v8.885h15.022v-.412h-14.61V127.27h-.412V142.745zm.412-21.792h21.784v.785h.413v-1.197h-22.609v6.317h.412v-5.905z" fill="#4684C4" fill-rule="nonzero"/><path d="M647.306 127.27v-.412h-19.042v.412h19.042zm-32.34 4.23v.413h6.597v-.412h-2.154l-4.443-.001zm-21.746-17.837h15.693v-.412h-16.105v4.536h.412v-4.124zm21.952 7.08v-4.916h26.596v-.411H614.76v5.327h.412zm-1.816 38.277h-4.443v.411h7.908v-.412l-3.465.001z" fill="#4684C4" fill-rule="nonzero"/><path fill="#95ABC1" fill-rule="nonzero" d="M647.306 124.452v39.712h7.696v-39.712z"/><path fill="#394450" fill-rule="nonzero" d="M647.306 121.738v2.714h7.696v-2.714h-.522z"/><path d="M501.032 207.727l-9.832-6.08c-1.543 3.778-2.235 7.595-1.619 10.857.492 2.602 1.821 4.849 4.226 6.438.154.102.308.203.471.3 1.723 1.02 3.954 1.723 6.754 2.026V207.727z" fill="#CE956F" fill-rule="nonzero"/><path d="M519.238 353.812h20.754v-17.196h-11.01c.307 14.306-7.21 4.74-9.744 17.196zm29.88-18.296h-.083l-1.69 18.296h18.074c-2.534-12.456-6.696-2.89-6.226-17.196h-10.175l.1-1.1z" fill="#0D2135" fill-rule="nonzero"/><path d="M540.631 134.052h.009l.5-.18a4.784 4.784 0 01-.788-1.777c.123.682.214 1.34.28 1.957h-.001z" fill="#DE9885" fill-rule="nonzero"/><path d="M540.64 134.052h-.009a27.494 27.494 0 00-.279-1.957 4.822 4.822 0 119.534-1.018c.002-.009.041-.142.105-.398.297-1.171 1.007-4.767-.107-8.403 0 0 2.392 2.474 7.232 3.298l-3.084-4.849s3.62 2.111 7.727 3.06c1.254.297 2.557.478 3.818.453 0 0-1.863-1.237-3.678-3.513 0 0 1.51.413 4.503 0 0 0-4.115-.717-8.997-4.593l-.008-.008a17.192 17.192 0 00-12.33-5.179c-9.54 0-17.275 7.735-17.275 17.276a17.155 17.155 0 002.952 9.657c1.427 2.177 2.713 3.983 3.711 5.624a14.25 14.25 0 001.624-.536c4.058-1.608 5.047-4.412 4.56-8.914h.001z" fill="#1C0301" fill-rule="nonzero"/><path d="M564.538 133.079c-.84-1.353-1.913-3.184-2.218-5.69v-.009c-.041-.33-.066-.668-.083-1.022v-.091h-.008c-.09-.85-.247-1.682-.47-2.482-4.107-.949-7.727-3.06-7.727-3.06l3.084 4.85c-4.84-.825-7.232-3.3-7.232-3.3 1.114 3.637.404 7.233.107 8.404-.064.256-.103.389-.105.398a4.822 4.822 0 10-8.746 2.794l-.5.18c.486 4.503-.503 7.307-4.56 8.915a14.4 14.4 0 01-1.625.536c2.95 4.793 3.5 8.112-1.626 14.884h20.83c-.795-3.206-1.955-10.15 2.5-11.404 3.802-1.072 5.493-2.358 5.765-5.22.066-.651.42-4.197.42-4.964l1.567-.866c.933-.404 1.303-1.781.627-2.853z" fill="#CE956F" fill-rule="nonzero"/><path d="M512.695 316.747c1.995 11.604 3.707 19.869 3.707 19.869h23.59v-55.702H513.55l-.855 35.833zM579.2 266.07c1.614 0 3.032.791 3.922 1.996-1.095-4.748-2.862-8.945-3.992-11.349v9.353h.07zm0 14.844h-.07v27.944c1.588-9.412 3.308-19.94 4.725-29.437.211-1.418.278-2.87.234-4.328v.933c0 2.7-2.189 4.888-4.888 4.888h-.001zm-26.131 0l.774 2.508-4.725 52.094-.1 1.1h23.649l-1.33-55.702h-18.268zm17.668-25.129c-2.376.287-5.383.579-9.083.821-5.046.33-11.378.568-19.188.568-7.81 0-14.141-.237-19.188-.568a167.75 167.75 0 01-9.128-.826l-.246 10.29h57.079l-.246-10.285z" fill="#444097" fill-rule="nonzero"/><path d="M501.032 195.862c0-7.377 5.98-13.357 13.358-13.357h56.107c7.377 0 13.358 5.98 13.358 13.357v3.541l4.242-11.123v-.001l-6.195-14.224-.505-1.158-.686-1.577-.135-.309a20.999 20.999 0 00-8.997-9.941 20.997 20.997 0 00-10.275-2.684h-38.825a21.015 21.015 0 00-19.577 13.36l-11.702 29.9 9.832 6.08v-11.865.001zm13.118 59.918c2.384.288 5.405.582 9.128.826 5.047.33 11.378.568 19.188.568 7.81 0 14.142-.237 19.188-.568 3.7-.242 6.707-.534 9.083-.82l-.135-5.665c-.035 0-.07.006-.105.006H514.39c-.036 0-.07-.005-.105-.006l-.135 5.659z" fill="#0D2135" fill-rule="nonzero"/><path d="M603.467 135.717l1.552-1.13c.057 1.131-.266 2.236-.704 3.288l8.552 9.042c1.104-1.172 2.208-2.33 3.068-3.61.581-.865.283-2.193-.613-2.726-.336-.2-.733-.299-1.03-.551-.22-.188-.372-.45-.608-.618-.512-.366-1.249-.186-1.811-.469-.579-.291-.865-1.017-1.473-1.24-.645-.235-1.547.182-2.043-.292 0 0-.031-2.38 0-3.875.03-1.495-1.138-3.377-3.331-1.827l-2.908 2.18a1.13 1.13 0 00-.396 1.245l.665.703c.35.138.755.116 1.08-.12zm.104 3.644c-.094.141-.186.284-.305.405-.326.332-.84.637-1.306.617-.389-.016-.708-.368-.778-.751-.07-.384.065-.78.271-1.11.179-.285.415-.586.477-.897l-.783-.827c-.261.002-.519.06-.755.171-.751.331-1.293 1.01-1.83 1.632-1.446 1.672-2.057 4.034-1.603 6.198.257 1.223.83 2.374.962 3.616.09.857.041 1.908-.088 2.803-.016.11-.028.227-.046.332l-.022.08-1.133 4.297-.109.412-1.94 7.353-.108.412-1.904 7.216-4.474 16.958v.002l-4.242 11.123v8.516l1.85.507c6.855 1.876 13.833-2.575 15.022-9.582l4.673-27.524 1.225-7.216.07-.412 1.248-7.353.07-.412.288-1.697c.174-.906.48-1.782.909-2.6.071-.139.146-.276.223-.412.648-1.14 1.482-2.167 2.371-3.152l-8.233-8.705z" fill="#CE956F" fill-rule="nonzero"/><path d="M616.063 150.297l-1.926-2.037-1.134 1.073 1.783 1.885.143.151a.625.625 0 00.884.025l.186-.176.04-.037a.625.625 0 00.024-.884z" fill="#71C28F" fill-rule="nonzero"/><path fill="#0D2135" fill-rule="nonzero" d="M612.305 148.596l1.135-1.073-.573-.606-8.552-9.042-1.928-2.038-.665-.703-3.003-3.175-.062.058-1.072 1.014 3.562 3.767.783.827 1.641 1.736 8.233 8.705 1.199 1.267z"/><path fill="#EDF6F2" fill-rule="nonzero" d="M613.003 149.333l1.134-1.073-.697-.737-1.135 1.073z"/><path fill="#0D2135" fill-rule="nonzero" d="M596.034 130.315l.659 1.154.527-.428z"/><path fill="#DE9885" fill-rule="nonzero" d="M598.657 132.017l.062-.058-1.5-.918-.526.428.892 1.562z"/><path d="M505.686 266.07a4.888 4.888 0 00-4.887 4.888v5.068c0 2.7 2.188 4.888 4.887 4.888h.071V266.07H505.686zm73.514 0h-.07v14.844h.07c2.7 0 4.889-2.188 4.889-4.888v-5.068c0-1.087-.367-2.08-.967-2.892a4.867 4.867 0 00-3.921-1.996h-.001zm-8.217 0h-57.079l-.354 14.844h57.787l-.354-14.844z" fill="#808D38" fill-rule="nonzero"/><path d="M513.904 266.07l.246-10.29.135-5.659a13.293 13.293 0 01-8.528-3.168v106.684h6.057l.88-36.89.856-35.833.354-14.844zm56.698-15.949l.135 5.664.246 10.285.354 14.844 1.33 55.702.406 17.02h6.057V246.954a13.293 13.293 0 01-8.528 3.168v-.001z" fill="#F9D581" fill-rule="nonzero"/><path d="M583.855 212.504v-16.641c0-7.378-5.98-13.358-13.358-13.358H514.39c-7.377 0-13.358 5.98-13.358 13.357v40.908c0 4.083 1.838 7.733 4.725 10.183a13.293 13.293 0 008.528 3.168c.035 0 .07.006.105.006h56.107c.036 0 .07-.005.105-.006a13.293 13.293 0 008.528-3.168c2.887-2.45 4.725-6.1 4.725-10.183v-24.266z" fill="#808D38" fill-rule="nonzero"/><path d="M715.239 345.866c2.89 0 6.035-1.195 7.394-1.775l-13.068-2.678.027.276c3.984 1.85 5.647 4.177 5.647 4.177z" fill="#FFF" fill-rule="nonzero"/><path d="M692.627 211.145h-.015a285.193 285.193 0 00-.236 3.65l.25-3.65h.001z" fill="#915907" fill-rule="nonzero"/><path d="M720.897 214.01l6.932-.191c-1.6-.702-3.661-1.258-6.932-1.678v1.869zm-15.939-2.762v3.2l13.999-.385v-2.14c-3.382-.333-7.865-.557-13.999-.675zm-1.94-.033c-3.463-.05-6.927-.072-10.391-.07l-.25 3.65 10.64-.293v-3.287h.001z" fill="#2D1C17" fill-rule="nonzero"/><path d="M735.486 225.847c-.16-2.489-.235-5.01-.272-7.393-3.394-1.956-4.775-3.49-7.385-4.635l-6.932.19v-1.868a67.362 67.362 0 00-1.94-.218v2.14l-13.999.385v-3.2c-.628-.012-1.276-.023-1.94-.033v3.287l-10.642.293a300.36 300.36 0 00-.208 4.147l-.014.3a392.268 392.268 0 00-.314 11.545c-.63 47.131 5.742 108.17 5.742 108.17l11.983 2.456 13.068 2.678c.377-.162.625-.278.68-.305 0-.008.01-.008.01-.008.037.16.067.316.1.475l6.417 1.315c-7.193-77.293 7.363-93.129 5.646-119.72v-.001z" fill="#915907" fill-rule="nonzero"/><path d="M723.314 343.786c-.056.027-.304.143-.681.305-1.36.58-4.505 1.775-7.394 1.775 0 0-1.663-2.327-5.647-4.177-4.781 7.318-19.877 7.738-19.877 7.738l-.557 4.473h34.541s.837-4.47-.275-9.647c-.034-.159-.064-.315-.102-.475 0 0-.008 0-.008.008z" fill="#22201D" fill-rule="nonzero"/><path d="M669.532 181.309c-3.25.156-5.5-.412-6.474-.729a6.48 6.48 0 00-1.324-.28l-9.281-.982c-.916-.097-1.336 1.097-.558 1.583 1.012.632 2.318.966 3.332 1.14a.538.538 0 01.182 1l-6.669 3.816a.966.966 0 00-.425 1.187.985.985 0 001.205.581l2.754-.836.16.5c.157.493.641.81 1.162.76l.75-.071.105.466c.12.528.507.958 1.025 1.136l2.94 1.01a3.186 3.186 0 002.198-.047l6.138-2.409a5.847 5.847 0 012.327-.4l6.458.635-.105-8.22-5.9.16z" fill="#F0B5A5" fill-rule="nonzero"/><path d="M711.652 106.654c-.017-.36-.02-.733 0-1.12l-.01.001a4.73 4.73 0 01-.28 1.092l.29.027zM698.84 122.9l-1.25-.12c.382.046.795.085 1.25.12z" fill="#DE9885" fill-rule="nonzero"/><path d="M701.95 105.758c-3.054-6.173-3.744-12.721-3.744-12.721-2.399 1.325-5.342 2.5-7.967 2.103a16.755 16.755 0 00-1.349 9.41l-.008.001a.251.251 0 01.013.082c.094.391.165.763.208 1.125.506 3.577-.707 5.794-.293 7.376.372 1.423 1.951 1.036 2.849 2.47a23.368 23.368 0 003.26-.291c5.712-.95 8.856-4.145 7.03-9.555h.001z" fill="#F0B5A5" fill-rule="nonzero"/><path d="M696.766 84.772c-1.295 0-2.59-.627-3.834-.266-.991.278-1.711 1.132-2.681 1.49-1.119.413-2.416.108-3.53.537-1.331.518-2.263 2.664-1.717 3.966 1.261 3.02 3.146 4.327 5.235 4.641 2.625.398 5.568-.778 7.967-2.103 0 0 .69 6.548 3.744 12.72.057.122.115.243.18.362h.003c-.67-2.568.89-5.186 3.487-5.85 2.597-.664 5.245.88 5.915 3.447.16.613.186 1.228.108 1.82l.008-.001c-.019.386-.016.758 0 1.119.23 4.75 3.442 7.032 6.29 8.119a14.8 14.8 0 002.031.617c.558-2.1 1.501-4.496 2.533-7.473.03-.084.057-.175.086-.26a16.97 16.97 0 00.361-9.81c-2.013-7.702-8.996-12.828-16.681-12.9-.772-.008-1.317-.092-1.77-.204-1.06-.263-1.555-.702-2.856-.827-1.653-.154-3.221.865-4.879.856z" fill="#823927" fill-rule="nonzero"/><path d="M719.972 115.39a14.8 14.8 0 01-2.03-.617c-2.849-1.087-6.06-3.37-6.29-8.12l-.29-.026a4.723 4.723 0 00.174-2.91c-.671-2.568-3.32-4.111-5.916-3.448-2.596.663-4.157 3.282-3.487 5.85h-.003a7.133 7.133 0 01-.18-.361l4.287 12.794c.089.274.15.538.167.805.213 2.193-1.658 4.155-4.002 3.914l-2.08-.214c2.252.443 3.496 2.5 4.18 4.79.081.276.154.555.22.836l15.379-4.297c-.645-3.675-.654-7.024-.129-8.996z" fill="#F0B5A5" fill-rule="nonzero"/><path d="M706.404 119.357a3.344 3.344 0 00-.167-.805l-4.287-12.794c1.825 5.41-1.319 8.604-7.03 9.555a23.425 23.425 0 01-3.261.29c.208.337.383.776.492 1.358 1.049 4.439 1.49 5.31 4.954 5.764l.486.054 1.25.122.017.004 1.456.154.008-.002 2.08.214c2.344.24 4.215-1.721 4.002-3.914z" fill="#BF7461" fill-rule="nonzero"/><path d="M704.501 128.745l-.524.146c-1.739 7.818-12.81 17.396-12.533 36.963.067 4.746.169 9.854.284 14.87l15.103-.379 2.421-26.096c-.333-5.718 4.174-10.579 9.964-10.746 5.75-.165 10.518 4.365 10.579 10.052l-3.88 29.287c.096 8.962-7.273 16.254-16.337 16.165l-17.374-.17c.212 7.288.38 12.308.38 12.308h.043c3.886 0 7.327.024 10.39.07.665.01 1.313.02 1.941.033 6.134.118 10.617.342 13.999.675.69.068 1.337.14 1.94.218 3.27.42 5.332.976 6.932 1.678 2.61 1.145 3.991 2.679 7.385 4.635.09.052.179.104.272.156l1.764-61.71c-.692-20.328-15.497-21.293-16.674-32.646l-.475.132-15.379 4.297-.22.062h-.001z" fill="#0D2135" fill-rule="nonzero"/><path d="M709.528 199.048c9.17.09 16.626-7.267 16.528-16.308l3.926-29.546c-.062-5.737-4.886-10.308-10.703-10.14-5.858.168-10.418 5.072-10.08 10.84l-2.45 26.327-15.28.382-16.487.412v.016l.106 8.293.12 9.389 16.743.163 17.577.172z" fill="#17344C" fill-rule="nonzero"/></g></g></svg>
